<svg xmlns="http://www.w3.org/2000/svg" width="23.339" height="23.339" viewBox="0 0 23.339 23.339">
  <path id="Icon_awesome-linkedin-in" data-name="Icon awesome-linkedin-in" d="M5.224,23.339H.386V7.757H5.224ZM2.8,5.632A2.816,2.816,0,1,1,5.6,2.8,2.826,2.826,0,0,1,2.8,5.632ZM23.334,23.339H18.506V15.754c0-1.808-.036-4.126-2.516-4.126-2.516,0-2.9,1.964-2.9,4v7.716H8.255V7.757H12.9V9.883h.068a5.084,5.084,0,0,1,4.578-2.516c4.9,0,5.8,3.225,5.8,7.413v8.559Z" transform="translate(0 -0.001)" fill="#8a3d92"/>
</svg>
