<svg xmlns="http://www.w3.org/2000/svg" width="28.94" height="19.535" viewBox="0 0 28.94 19.535">
  <path id="Icon_zocial-email" data-name="Icon zocial-email" d="M.072,21.873V5.8q0-.028.084-.53l9.461,8.093L.184,22.431a2.365,2.365,0,0,1-.112-.558ZM1.328,4.152A1.2,1.2,0,0,1,1.8,4.068H27.282a1.58,1.58,0,0,1,.5.084L18.3,12.273l-1.256,1-2.484,2.037-2.484-2.037-1.256-1Zm.028,19.368,9.516-9.126,3.684,2.986,3.684-2.986,9.516,9.126a1.34,1.34,0,0,1-.474.084H1.8a1.264,1.264,0,0,1-.447-.084ZM19.5,13.361l9.433-8.093a1.666,1.666,0,0,1,.084.53V21.873a2.139,2.139,0,0,1-.084.558Z" transform="translate(-0.072 -4.068)" fill="#8a3d92"/>
</svg>
