<svg version="1.1" xmlns="http://www.w3.org/2000/svg" xmlns:xlink="http://www.w3.org/1999/xlink" x="0px" y="0px" viewBox="0 0 612 792" style="enable-background:new 0 0 612 792;" xml:space="preserve" id="el_DaOwmm3qi"><style>@-webkit-keyframes kf_el_EQNbzD1xja_an_CPtChv1ZT{0%{-webkit-transform: translate(305.58448791503906px, 347.03924560546875px) scale(1, 1) translate(-305.58448791503906px, -347.03924560546875px);transform: translate(305.58448791503906px, 347.03924560546875px) scale(1, 1) translate(-305.58448791503906px, -347.03924560546875px);}3.33%{-webkit-transform: translate(305.58448791503906px, 347.03924560546875px) scale(1, 0) translate(-305.58448791503906px, -347.03924560546875px);transform: translate(305.58448791503906px, 347.03924560546875px) scale(1, 0) translate(-305.58448791503906px, -347.03924560546875px);}55.56%{-webkit-transform: translate(305.58448791503906px, 347.03924560546875px) scale(1, 0) translate(-305.58448791503906px, -347.03924560546875px);transform: translate(305.58448791503906px, 347.03924560546875px) scale(1, 0) translate(-305.58448791503906px, -347.03924560546875px);}61.11%{-webkit-transform: translate(305.58448791503906px, 347.03924560546875px) scale(1, 1) translate(-305.58448791503906px, -347.03924560546875px);transform: translate(305.58448791503906px, 347.03924560546875px) scale(1, 1) translate(-305.58448791503906px, -347.03924560546875px);}100%{-webkit-transform: translate(305.58448791503906px, 347.03924560546875px) scale(1, 1) translate(-305.58448791503906px, -347.03924560546875px);transform: translate(305.58448791503906px, 347.03924560546875px) scale(1, 1) translate(-305.58448791503906px, -347.03924560546875px);}}@keyframes kf_el_EQNbzD1xja_an_CPtChv1ZT{0%{-webkit-transform: translate(305.58448791503906px, 347.03924560546875px) scale(1, 1) translate(-305.58448791503906px, -347.03924560546875px);transform: translate(305.58448791503906px, 347.03924560546875px) scale(1, 1) translate(-305.58448791503906px, -347.03924560546875px);}3.33%{-webkit-transform: translate(305.58448791503906px, 347.03924560546875px) scale(1, 0) translate(-305.58448791503906px, -347.03924560546875px);transform: translate(305.58448791503906px, 347.03924560546875px) scale(1, 0) translate(-305.58448791503906px, -347.03924560546875px);}55.56%{-webkit-transform: translate(305.58448791503906px, 347.03924560546875px) scale(1, 0) translate(-305.58448791503906px, -347.03924560546875px);transform: translate(305.58448791503906px, 347.03924560546875px) scale(1, 0) translate(-305.58448791503906px, -347.03924560546875px);}61.11%{-webkit-transform: translate(305.58448791503906px, 347.03924560546875px) scale(1, 1) translate(-305.58448791503906px, -347.03924560546875px);transform: translate(305.58448791503906px, 347.03924560546875px) scale(1, 1) translate(-305.58448791503906px, -347.03924560546875px);}100%{-webkit-transform: translate(305.58448791503906px, 347.03924560546875px) scale(1, 1) translate(-305.58448791503906px, -347.03924560546875px);transform: translate(305.58448791503906px, 347.03924560546875px) scale(1, 1) translate(-305.58448791503906px, -347.03924560546875px);}}@-webkit-keyframes kf_el_QIkd9MZtF8R_an_9sz7u6eLl{0%{-webkit-transform: translate(394.09999084472656px, 314.1039733886719px) scale(1, 1) translate(-394.09999084472656px, -314.1039733886719px);transform: translate(394.09999084472656px, 314.1039733886719px) scale(1, 1) translate(-394.09999084472656px, -314.1039733886719px);}3.33%{-webkit-transform: translate(394.09999084472656px, 314.1039733886719px) scale(1, 0) translate(-394.09999084472656px, -314.1039733886719px);transform: translate(394.09999084472656px, 314.1039733886719px) scale(1, 0) translate(-394.09999084472656px, -314.1039733886719px);}55.56%{-webkit-transform: translate(394.09999084472656px, 314.1039733886719px) scale(1, 0) translate(-394.09999084472656px, -314.1039733886719px);transform: translate(394.09999084472656px, 314.1039733886719px) scale(1, 0) translate(-394.09999084472656px, -314.1039733886719px);}61.11%{-webkit-transform: translate(394.09999084472656px, 314.1039733886719px) scale(1, 1) translate(-394.09999084472656px, -314.1039733886719px);transform: translate(394.09999084472656px, 314.1039733886719px) scale(1, 1) translate(-394.09999084472656px, -314.1039733886719px);}100%{-webkit-transform: translate(394.09999084472656px, 314.1039733886719px) scale(1, 1) translate(-394.09999084472656px, -314.1039733886719px);transform: translate(394.09999084472656px, 314.1039733886719px) scale(1, 1) translate(-394.09999084472656px, -314.1039733886719px);}}@keyframes kf_el_QIkd9MZtF8R_an_9sz7u6eLl{0%{-webkit-transform: translate(394.09999084472656px, 314.1039733886719px) scale(1, 1) translate(-394.09999084472656px, -314.1039733886719px);transform: translate(394.09999084472656px, 314.1039733886719px) scale(1, 1) translate(-394.09999084472656px, -314.1039733886719px);}3.33%{-webkit-transform: translate(394.09999084472656px, 314.1039733886719px) scale(1, 0) translate(-394.09999084472656px, -314.1039733886719px);transform: translate(394.09999084472656px, 314.1039733886719px) scale(1, 0) translate(-394.09999084472656px, -314.1039733886719px);}55.56%{-webkit-transform: translate(394.09999084472656px, 314.1039733886719px) scale(1, 0) translate(-394.09999084472656px, -314.1039733886719px);transform: translate(394.09999084472656px, 314.1039733886719px) scale(1, 0) translate(-394.09999084472656px, -314.1039733886719px);}61.11%{-webkit-transform: translate(394.09999084472656px, 314.1039733886719px) scale(1, 1) translate(-394.09999084472656px, -314.1039733886719px);transform: translate(394.09999084472656px, 314.1039733886719px) scale(1, 1) translate(-394.09999084472656px, -314.1039733886719px);}100%{-webkit-transform: translate(394.09999084472656px, 314.1039733886719px) scale(1, 1) translate(-394.09999084472656px, -314.1039733886719px);transform: translate(394.09999084472656px, 314.1039733886719px) scale(1, 1) translate(-394.09999084472656px, -314.1039733886719px);}}@-webkit-keyframes kf_el_dVlPy_nOHFg_an_1bZXnkGlT{0%{-webkit-transform: translate(224.59999084472656px, 310.9039611816406px) scale(1, 1) translate(-224.59999084472656px, -310.9039611816406px);transform: translate(224.59999084472656px, 310.9039611816406px) scale(1, 1) translate(-224.59999084472656px, -310.9039611816406px);}3.33%{-webkit-transform: translate(224.59999084472656px, 310.9039611816406px) scale(1, 0) translate(-224.59999084472656px, -310.9039611816406px);transform: translate(224.59999084472656px, 310.9039611816406px) scale(1, 0) translate(-224.59999084472656px, -310.9039611816406px);}55.56%{-webkit-transform: translate(224.59999084472656px, 310.9039611816406px) scale(1, 0) translate(-224.59999084472656px, -310.9039611816406px);transform: translate(224.59999084472656px, 310.9039611816406px) scale(1, 0) translate(-224.59999084472656px, -310.9039611816406px);}61.11%{-webkit-transform: translate(224.59999084472656px, 310.9039611816406px) scale(1, 1) translate(-224.59999084472656px, -310.9039611816406px);transform: translate(224.59999084472656px, 310.9039611816406px) scale(1, 1) translate(-224.59999084472656px, -310.9039611816406px);}100%{-webkit-transform: translate(224.59999084472656px, 310.9039611816406px) scale(1, 1) translate(-224.59999084472656px, -310.9039611816406px);transform: translate(224.59999084472656px, 310.9039611816406px) scale(1, 1) translate(-224.59999084472656px, -310.9039611816406px);}}@keyframes kf_el_dVlPy_nOHFg_an_1bZXnkGlT{0%{-webkit-transform: translate(224.59999084472656px, 310.9039611816406px) scale(1, 1) translate(-224.59999084472656px, -310.9039611816406px);transform: translate(224.59999084472656px, 310.9039611816406px) scale(1, 1) translate(-224.59999084472656px, -310.9039611816406px);}3.33%{-webkit-transform: translate(224.59999084472656px, 310.9039611816406px) scale(1, 0) translate(-224.59999084472656px, -310.9039611816406px);transform: translate(224.59999084472656px, 310.9039611816406px) scale(1, 0) translate(-224.59999084472656px, -310.9039611816406px);}55.56%{-webkit-transform: translate(224.59999084472656px, 310.9039611816406px) scale(1, 0) translate(-224.59999084472656px, -310.9039611816406px);transform: translate(224.59999084472656px, 310.9039611816406px) scale(1, 0) translate(-224.59999084472656px, -310.9039611816406px);}61.11%{-webkit-transform: translate(224.59999084472656px, 310.9039611816406px) scale(1, 1) translate(-224.59999084472656px, -310.9039611816406px);transform: translate(224.59999084472656px, 310.9039611816406px) scale(1, 1) translate(-224.59999084472656px, -310.9039611816406px);}100%{-webkit-transform: translate(224.59999084472656px, 310.9039611816406px) scale(1, 1) translate(-224.59999084472656px, -310.9039611816406px);transform: translate(224.59999084472656px, 310.9039611816406px) scale(1, 1) translate(-224.59999084472656px, -310.9039611816406px);}}@-webkit-keyframes kf_el_KrP5AmD2VME_an_GmGL9-tx2{5.56%{-webkit-transform: translate(307.1722106933594px, 346.5px) scale(1, 0) translate(-307.1722106933594px, -346.5px);transform: translate(307.1722106933594px, 346.5px) scale(1, 0) translate(-307.1722106933594px, -346.5px);}11.11%{-webkit-transform: translate(307.1722106933594px, 346.5px) scale(1, 1) translate(-307.1722106933594px, -346.5px);transform: translate(307.1722106933594px, 346.5px) scale(1, 1) translate(-307.1722106933594px, -346.5px);}50%{-webkit-transform: translate(307.1722106933594px, 346.5px) scale(1, 1) translate(-307.1722106933594px, -346.5px);transform: translate(307.1722106933594px, 346.5px) scale(1, 1) translate(-307.1722106933594px, -346.5px);}55.56%{-webkit-transform: translate(307.1722106933594px, 346.5px) scale(1, 0) translate(-307.1722106933594px, -346.5px);transform: translate(307.1722106933594px, 346.5px) scale(1, 0) translate(-307.1722106933594px, -346.5px);}0%{-webkit-transform: translate(307.1722106933594px, 346.5px) scale(1, 0) translate(-307.1722106933594px, -346.5px);transform: translate(307.1722106933594px, 346.5px) scale(1, 0) translate(-307.1722106933594px, -346.5px);}100%{-webkit-transform: translate(307.1722106933594px, 346.5px) scale(1, 0) translate(-307.1722106933594px, -346.5px);transform: translate(307.1722106933594px, 346.5px) scale(1, 0) translate(-307.1722106933594px, -346.5px);}}@keyframes kf_el_KrP5AmD2VME_an_GmGL9-tx2{5.56%{-webkit-transform: translate(307.1722106933594px, 346.5px) scale(1, 0) translate(-307.1722106933594px, -346.5px);transform: translate(307.1722106933594px, 346.5px) scale(1, 0) translate(-307.1722106933594px, -346.5px);}11.11%{-webkit-transform: translate(307.1722106933594px, 346.5px) scale(1, 1) translate(-307.1722106933594px, -346.5px);transform: translate(307.1722106933594px, 346.5px) scale(1, 1) translate(-307.1722106933594px, -346.5px);}50%{-webkit-transform: translate(307.1722106933594px, 346.5px) scale(1, 1) translate(-307.1722106933594px, -346.5px);transform: translate(307.1722106933594px, 346.5px) scale(1, 1) translate(-307.1722106933594px, -346.5px);}55.56%{-webkit-transform: translate(307.1722106933594px, 346.5px) scale(1, 0) translate(-307.1722106933594px, -346.5px);transform: translate(307.1722106933594px, 346.5px) scale(1, 0) translate(-307.1722106933594px, -346.5px);}0%{-webkit-transform: translate(307.1722106933594px, 346.5px) scale(1, 0) translate(-307.1722106933594px, -346.5px);transform: translate(307.1722106933594px, 346.5px) scale(1, 0) translate(-307.1722106933594px, -346.5px);}100%{-webkit-transform: translate(307.1722106933594px, 346.5px) scale(1, 0) translate(-307.1722106933594px, -346.5px);transform: translate(307.1722106933594px, 346.5px) scale(1, 0) translate(-307.1722106933594px, -346.5px);}}@-webkit-keyframes kf_el_Wiziu4gEU-3_an_kk-Ap-qRe{5.56%{-webkit-transform: translate(309.45243072509766px, 314.1029357910156px) scale(1, 0) translate(-309.45243072509766px, -314.1029357910156px);transform: translate(309.45243072509766px, 314.1029357910156px) scale(1, 0) translate(-309.45243072509766px, -314.1029357910156px);}11.11%{-webkit-transform: translate(309.45243072509766px, 314.1029357910156px) scale(1, 1) translate(-309.45243072509766px, -314.1029357910156px);transform: translate(309.45243072509766px, 314.1029357910156px) scale(1, 1) translate(-309.45243072509766px, -314.1029357910156px);}50%{-webkit-transform: translate(309.45243072509766px, 314.1029357910156px) scale(1, 1) translate(-309.45243072509766px, -314.1029357910156px);transform: translate(309.45243072509766px, 314.1029357910156px) scale(1, 1) translate(-309.45243072509766px, -314.1029357910156px);}55.56%{-webkit-transform: translate(309.45243072509766px, 314.1029357910156px) scale(1, 0) translate(-309.45243072509766px, -314.1029357910156px);transform: translate(309.45243072509766px, 314.1029357910156px) scale(1, 0) translate(-309.45243072509766px, -314.1029357910156px);}0%{-webkit-transform: translate(309.45243072509766px, 314.1029357910156px) scale(1, 0) translate(-309.45243072509766px, -314.1029357910156px);transform: translate(309.45243072509766px, 314.1029357910156px) scale(1, 0) translate(-309.45243072509766px, -314.1029357910156px);}100%{-webkit-transform: translate(309.45243072509766px, 314.1029357910156px) scale(1, 0) translate(-309.45243072509766px, -314.1029357910156px);transform: translate(309.45243072509766px, 314.1029357910156px) scale(1, 0) translate(-309.45243072509766px, -314.1029357910156px);}}@keyframes kf_el_Wiziu4gEU-3_an_kk-Ap-qRe{5.56%{-webkit-transform: translate(309.45243072509766px, 314.1029357910156px) scale(1, 0) translate(-309.45243072509766px, -314.1029357910156px);transform: translate(309.45243072509766px, 314.1029357910156px) scale(1, 0) translate(-309.45243072509766px, -314.1029357910156px);}11.11%{-webkit-transform: translate(309.45243072509766px, 314.1029357910156px) scale(1, 1) translate(-309.45243072509766px, -314.1029357910156px);transform: translate(309.45243072509766px, 314.1029357910156px) scale(1, 1) translate(-309.45243072509766px, -314.1029357910156px);}50%{-webkit-transform: translate(309.45243072509766px, 314.1029357910156px) scale(1, 1) translate(-309.45243072509766px, -314.1029357910156px);transform: translate(309.45243072509766px, 314.1029357910156px) scale(1, 1) translate(-309.45243072509766px, -314.1029357910156px);}55.56%{-webkit-transform: translate(309.45243072509766px, 314.1029357910156px) scale(1, 0) translate(-309.45243072509766px, -314.1029357910156px);transform: translate(309.45243072509766px, 314.1029357910156px) scale(1, 0) translate(-309.45243072509766px, -314.1029357910156px);}0%{-webkit-transform: translate(309.45243072509766px, 314.1029357910156px) scale(1, 0) translate(-309.45243072509766px, -314.1029357910156px);transform: translate(309.45243072509766px, 314.1029357910156px) scale(1, 0) translate(-309.45243072509766px, -314.1029357910156px);}100%{-webkit-transform: translate(309.45243072509766px, 314.1029357910156px) scale(1, 0) translate(-309.45243072509766px, -314.1029357910156px);transform: translate(309.45243072509766px, 314.1029357910156px) scale(1, 0) translate(-309.45243072509766px, -314.1029357910156px);}}@-webkit-keyframes kf_el_CsGuqrgGy21_an_ZbIRD94bT{0%{-webkit-transform: translate(357.8866271972656px, 226.49462890625px) rotate(0deg) translate(-357.8866271972656px, -226.49462890625px);transform: translate(357.8866271972656px, 226.49462890625px) rotate(0deg) translate(-357.8866271972656px, -226.49462890625px);}11.11%{-webkit-transform: translate(357.8866271972656px, 226.49462890625px) rotate(-5deg) translate(-357.8866271972656px, -226.49462890625px);transform: translate(357.8866271972656px, 226.49462890625px) rotate(-5deg) translate(-357.8866271972656px, -226.49462890625px);}66.67%{-webkit-transform: translate(357.8866271972656px, 226.49462890625px) rotate(0deg) translate(-357.8866271972656px, -226.49462890625px);transform: translate(357.8866271972656px, 226.49462890625px) rotate(0deg) translate(-357.8866271972656px, -226.49462890625px);}100%{-webkit-transform: translate(357.8866271972656px, 226.49462890625px) rotate(0deg) translate(-357.8866271972656px, -226.49462890625px);transform: translate(357.8866271972656px, 226.49462890625px) rotate(0deg) translate(-357.8866271972656px, -226.49462890625px);}}@keyframes kf_el_CsGuqrgGy21_an_ZbIRD94bT{0%{-webkit-transform: translate(357.8866271972656px, 226.49462890625px) rotate(0deg) translate(-357.8866271972656px, -226.49462890625px);transform: translate(357.8866271972656px, 226.49462890625px) rotate(0deg) translate(-357.8866271972656px, -226.49462890625px);}11.11%{-webkit-transform: translate(357.8866271972656px, 226.49462890625px) rotate(-5deg) translate(-357.8866271972656px, -226.49462890625px);transform: translate(357.8866271972656px, 226.49462890625px) rotate(-5deg) translate(-357.8866271972656px, -226.49462890625px);}66.67%{-webkit-transform: translate(357.8866271972656px, 226.49462890625px) rotate(0deg) translate(-357.8866271972656px, -226.49462890625px);transform: translate(357.8866271972656px, 226.49462890625px) rotate(0deg) translate(-357.8866271972656px, -226.49462890625px);}100%{-webkit-transform: translate(357.8866271972656px, 226.49462890625px) rotate(0deg) translate(-357.8866271972656px, -226.49462890625px);transform: translate(357.8866271972656px, 226.49462890625px) rotate(0deg) translate(-357.8866271972656px, -226.49462890625px);}}@-webkit-keyframes kf_el_tUFnfYL0eEv_an_l1GfnAgtn{0%{-webkit-transform: translate(238.9133758544922px, 221.40367126464844px) rotate(0deg) translate(-238.9133758544922px, -221.40367126464844px);transform: translate(238.9133758544922px, 221.40367126464844px) rotate(0deg) translate(-238.9133758544922px, -221.40367126464844px);}11.11%{-webkit-transform: translate(238.9133758544922px, 221.40367126464844px) rotate(5deg) translate(-238.9133758544922px, -221.40367126464844px);transform: translate(238.9133758544922px, 221.40367126464844px) rotate(5deg) translate(-238.9133758544922px, -221.40367126464844px);}66.67%{-webkit-transform: translate(238.9133758544922px, 221.40367126464844px) rotate(0deg) translate(-238.9133758544922px, -221.40367126464844px);transform: translate(238.9133758544922px, 221.40367126464844px) rotate(0deg) translate(-238.9133758544922px, -221.40367126464844px);}100%{-webkit-transform: translate(238.9133758544922px, 221.40367126464844px) rotate(0deg) translate(-238.9133758544922px, -221.40367126464844px);transform: translate(238.9133758544922px, 221.40367126464844px) rotate(0deg) translate(-238.9133758544922px, -221.40367126464844px);}}@keyframes kf_el_tUFnfYL0eEv_an_l1GfnAgtn{0%{-webkit-transform: translate(238.9133758544922px, 221.40367126464844px) rotate(0deg) translate(-238.9133758544922px, -221.40367126464844px);transform: translate(238.9133758544922px, 221.40367126464844px) rotate(0deg) translate(-238.9133758544922px, -221.40367126464844px);}11.11%{-webkit-transform: translate(238.9133758544922px, 221.40367126464844px) rotate(5deg) translate(-238.9133758544922px, -221.40367126464844px);transform: translate(238.9133758544922px, 221.40367126464844px) rotate(5deg) translate(-238.9133758544922px, -221.40367126464844px);}66.67%{-webkit-transform: translate(238.9133758544922px, 221.40367126464844px) rotate(0deg) translate(-238.9133758544922px, -221.40367126464844px);transform: translate(238.9133758544922px, 221.40367126464844px) rotate(0deg) translate(-238.9133758544922px, -221.40367126464844px);}100%{-webkit-transform: translate(238.9133758544922px, 221.40367126464844px) rotate(0deg) translate(-238.9133758544922px, -221.40367126464844px);transform: translate(238.9133758544922px, 221.40367126464844px) rotate(0deg) translate(-238.9133758544922px, -221.40367126464844px);}}#el_DaOwmm3qi *{-webkit-animation-duration: 3s;animation-duration: 3s;-webkit-animation-iteration-count: infinite;animation-iteration-count: infinite;-webkit-animation-timing-function: cubic-bezier(0, 0, 1, 1);animation-timing-function: cubic-bezier(0, 0, 1, 1);}#el_hDxkpv-kVO{fill: #9D2B90;}#el_z2vl-boU9X{fill: #2A2967;}#el_iK6jJTxB3E{fill: #9D2B90;}#el_FVDBzQJ8XX{fill: #2A2967;}#el_pKUEtAvUd_{fill: #2A2967;}#el_RBB8Noswjg{fill: #2A2967;}#el_if-Y7A3QSP{fill: #A8489A;}#el_YNwzFltdQq{fill: #2A2967;}#el_uh5H29Sp0A{fill: #952581;}#el_3CdTClg63z{fill: #E1F0F5;}#el_7PdCADU6ap{fill: #952581;}#el_7fJzGiLMYH{fill: #A73593;}#el_EQNbzD1xja{fill: #2A2967;}#el_j-ycVx8GKY{fill: #A254A0;}#el_tejb0QwT0mH{fill: #2A2967;}#el_pRHQPe4piR-{fill: #A254A0;}#el_ZCqWAMl2bUn{fill: #2A2967;}#el_trw5DtTsRt8{opacity: 0.9;fill: #ED2C62;}#el_vn1DE1Oluar{opacity: 0.9;fill: #ED2C62;}#el_CPeG4_8hADs{fill: #A73593;}#el_ow2Wb--7BnE{fill: #A73593;}#el_UV6624NbO33{opacity: 0.2;}#el_eG4PgRx9rm0{fill: #CEDEE6;}#el_VdzKWCLcmvi{fill: #2A2967;}#el_gZ3p26YeSXf{fill: #A8489A;}#el_JseQ_c0JzYx{fill: #623C96;}#el_Yh1QyEYpmyr{fill: #E1F0F5;}#el_4sCXU1s06Av{fill: #CEDEE6;}#el_2W2C9izfHtF{opacity: 0.3;}#el_uGugsE3OGyX{-webkit-clip-path: url(#XMLID_63_);clip-path: url(#XMLID_63_);fill: #E6E6E6;}#el_9-QLYKy7SzX{opacity: 0.3;}#el_7IquDycP3nT{-webkit-clip-path: url(#XMLID_64_);clip-path: url(#XMLID_64_);fill: #E6E6E6;}#el_PrKbQpyw4iX{fill: #BABCBE;}#el_toVeKyKC14a{overflow: visible;fill: #2A2967;}#el_pr-t9eOJuMU{-webkit-clip-path: url(#XMLID_65_);clip-path: url(#XMLID_65_);fill: #2A2967;}#el_RJMv8EdLpif{overflow: visible;fill: #2A2967;}#el_i5k6a0gV5EI{-webkit-clip-path: url(#XMLID_66_);clip-path: url(#XMLID_66_);fill: #2A2967;}#el_-KGpaHMicV4{fill: #2A2967;}#el_gbGMaug1KZc{fill: #4CBDA2;}#el_u70oSWrFSQd{fill: #2A2967;}#el_v2Rvaviuz3j{fill: #4CBDA2;}#el_wytyGqcu1Yn{fill: #2A2967;}#el_m-sXavb9IGs{fill: #FFFFFF;}#el_8pQMlDwM748{fill: #B2B2B2;}#el_ObdPGambHvE{fill: #FFFFFF;}#el_2DWyHlPp5JJ{fill: #B2B2B2;}#el_r49X-EMIdbX{fill: #2A2967;}#el_wDOlikcJ38D{fill: #2A2967;}#el_4WDbxla3FDD{fill: #2A2967;}#el_tShr66iT0oW{fill: #2A2967;}#el_tUFnfYL0eEv_an_l1GfnAgtn{-webkit-animation-fill-mode: backwards;animation-fill-mode: backwards;-webkit-transform: translate(238.9133758544922px, 221.40367126464844px) rotate(0deg) translate(-238.9133758544922px, -221.40367126464844px);transform: translate(238.9133758544922px, 221.40367126464844px) rotate(0deg) translate(-238.9133758544922px, -221.40367126464844px);-webkit-animation-name: kf_el_tUFnfYL0eEv_an_l1GfnAgtn;animation-name: kf_el_tUFnfYL0eEv_an_l1GfnAgtn;-webkit-animation-timing-function: cubic-bezier(0, 0, 1, 1);animation-timing-function: cubic-bezier(0, 0, 1, 1);}#el_CsGuqrgGy21_an_ZbIRD94bT{-webkit-animation-fill-mode: backwards;animation-fill-mode: backwards;-webkit-transform: translate(357.8866271972656px, 226.49462890625px) rotate(0deg) translate(-357.8866271972656px, -226.49462890625px);transform: translate(357.8866271972656px, 226.49462890625px) rotate(0deg) translate(-357.8866271972656px, -226.49462890625px);-webkit-animation-name: kf_el_CsGuqrgGy21_an_ZbIRD94bT;animation-name: kf_el_CsGuqrgGy21_an_ZbIRD94bT;-webkit-animation-timing-function: cubic-bezier(0, 0, 1, 1);animation-timing-function: cubic-bezier(0, 0, 1, 1);}#el_Wiziu4gEU-3_an_kk-Ap-qRe{-webkit-animation-fill-mode: backwards;animation-fill-mode: backwards;-webkit-transform: translate(309.45243072509766px, 314.1029357910156px) scale(1, 0) translate(-309.45243072509766px, -314.1029357910156px);transform: translate(309.45243072509766px, 314.1029357910156px) scale(1, 0) translate(-309.45243072509766px, -314.1029357910156px);-webkit-animation-name: kf_el_Wiziu4gEU-3_an_kk-Ap-qRe;animation-name: kf_el_Wiziu4gEU-3_an_kk-Ap-qRe;-webkit-animation-timing-function: cubic-bezier(0, 0, 1, 1);animation-timing-function: cubic-bezier(0, 0, 1, 1);}#el_KrP5AmD2VME_an_GmGL9-tx2{-webkit-animation-fill-mode: backwards;animation-fill-mode: backwards;-webkit-transform: translate(307.1722106933594px, 346.5px) scale(1, 0) translate(-307.1722106933594px, -346.5px);transform: translate(307.1722106933594px, 346.5px) scale(1, 0) translate(-307.1722106933594px, -346.5px);-webkit-animation-name: kf_el_KrP5AmD2VME_an_GmGL9-tx2;animation-name: kf_el_KrP5AmD2VME_an_GmGL9-tx2;-webkit-animation-timing-function: cubic-bezier(0, 0, 1, 1);animation-timing-function: cubic-bezier(0, 0, 1, 1);}#el_dVlPy_nOHFg_an_1bZXnkGlT{-webkit-animation-fill-mode: backwards;animation-fill-mode: backwards;-webkit-transform: translate(224.59999084472656px, 310.9039611816406px) scale(1, 1) translate(-224.59999084472656px, -310.9039611816406px);transform: translate(224.59999084472656px, 310.9039611816406px) scale(1, 1) translate(-224.59999084472656px, -310.9039611816406px);-webkit-animation-name: kf_el_dVlPy_nOHFg_an_1bZXnkGlT;animation-name: kf_el_dVlPy_nOHFg_an_1bZXnkGlT;-webkit-animation-timing-function: cubic-bezier(0, 0, 1, 1);animation-timing-function: cubic-bezier(0, 0, 1, 1);}#el_QIkd9MZtF8R_an_9sz7u6eLl{-webkit-animation-fill-mode: backwards;animation-fill-mode: backwards;-webkit-transform: translate(394.09999084472656px, 314.1039733886719px) scale(1, 1) translate(-394.09999084472656px, -314.1039733886719px);transform: translate(394.09999084472656px, 314.1039733886719px) scale(1, 1) translate(-394.09999084472656px, -314.1039733886719px);-webkit-animation-name: kf_el_QIkd9MZtF8R_an_9sz7u6eLl;animation-name: kf_el_QIkd9MZtF8R_an_9sz7u6eLl;-webkit-animation-timing-function: cubic-bezier(0, 0, 1, 1);animation-timing-function: cubic-bezier(0, 0, 1, 1);}#el_EQNbzD1xja_an_CPtChv1ZT{-webkit-animation-fill-mode: backwards;animation-fill-mode: backwards;-webkit-transform: translate(305.58448791503906px, 347.03924560546875px) scale(1, 1) translate(-305.58448791503906px, -347.03924560546875px);transform: translate(305.58448791503906px, 347.03924560546875px) scale(1, 1) translate(-305.58448791503906px, -347.03924560546875px);-webkit-animation-name: kf_el_EQNbzD1xja_an_CPtChv1ZT;animation-name: kf_el_EQNbzD1xja_an_CPtChv1ZT;-webkit-animation-timing-function: cubic-bezier(0, 0, 1, 1);animation-timing-function: cubic-bezier(0, 0, 1, 1);}</style>

<g id="el_3TrtWQ2Wcb">
	<path id="el_hDxkpv-kVO" d="M124.2,507.4c1.7,1.5,3.5,2.6,5.5,3.4c0.6,0.2,1.1,0.4,1.7,0.5l0,0c0.5,0.2,1,0.3,1.5,0.4&#10;&#9;&#9;c0.5,0.1,0.9,0.2,1.4,0.2c0.2,0.1,0.3,0.1,0.5,0.1c0.4,0,0.8,0.1,1.2,0.1c0.6,0,1.2,0,1.8,0c0.7,0,1.4-0.1,2.2-0.2&#10;&#9;&#9;c0.1,0,0.2,0,0.3,0c0.6-0.1,1.3-0.2,2-0.3c0.1,0,0.2,0,0.3-0.1c0.6-0.1,1.3-0.3,1.9-0.5c1.8-0.5,3.6-1.2,5.4-2&#10;&#9;&#9;c0.6-0.3,1.1-0.6,1.7-0.9c0.7-0.3,1.4-0.7,2.1-1.2c0.6-0.3,1.1-0.7,1.7-1c2.4-1.5,4.8-3.3,7.3-5.3c1-0.8,1.9-1.6,2.9-2.5&#10;&#9;&#9;c0.2-0.2,0.4-0.3,0.6-0.5c1-0.9,1.9-1.8,2.8-2.7c1-0.9,1.9-1.9,2.9-2.9c2.1-2.2,4.1-4.5,6.2-7c0.8-1,1.6-2.1,2.4-3.1&#10;&#9;&#9;c0.9-1.2,1.8-2.5,2.8-3.7c0.7-0.9,1.3-1.8,1.9-2.7c1.3-1.8,2.6-3.7,3.8-5.7c1.1-1.7,2.2-3.4,3.2-5.2c0.9-1.6,1.9-3.2,2.8-4.8&#10;&#9;&#9;c0.1-0.1,0.2-0.3,0.3-0.5c1-1.7,1.9-3.4,2.9-5.2c0.6-1,1.1-2.1,1.7-3.2c2.5-4.9,4.9-10,7.2-15.4c0.8-1.8,1.6-3.8,2.3-5.6&#10;&#9;&#9;c0,0,0-0.1,0.1-0.2c7.6-19.1,12.3-37.9,14.2-54.5c0.2-1.7,0.4-3.3,0.5-4.9c0.4-4.8,0.6-9.5,0.5-13.9c0,0,0,0,0,0&#10;&#9;&#9;c0-1.5-0.1-2.9-0.2-4.3c-0.1-1.4-0.2-2.8-0.3-4.1c-0.2-1.8-0.4-3.5-0.7-5.2c-0.2-1-0.4-2-0.6-3c-1.1-5.2-2.8-9.8-4.9-13.5&#10;&#9;&#9;c-2.8-4.8-6.5-8.3-11-10.1c-17.3-6.9-42.1,12.5-62.4,45.9c-1.6,2.6-3.1,5.3-4.6,8c-4.6,8.3-8.8,17.4-12.7,27&#10;&#9;&#9;c-7.4,18.6-12.1,37-14.1,53.3l0,0C109.8,477,113.5,498.3,124.2,507.4"/>
	<path id="el_z2vl-boU9X" d="M209.5,429.8c-12.5,31.5-29.9,57-46.8,70.9c-11.2,9.2-22.1,13.3-31.2,10.7&#10;&#9;&#9;c-7.2-17.8-1.6-57.7,15.4-100.7c2.1-5.3,4.3-10.4,6.5-15.3c20.8-45.4,47.6-75.8,63.1-69.6c0.5,0.2,1,0.4,1.4,0.7&#10;&#9;&#9;C229.2,345.7,226.5,386.8,209.5,429.8"/>
	<path id="el_iK6jJTxB3E" d="M489.8,506.5c-1.6,1.5-3.5,2.7-5.5,3.5c-0.6,0.2-1.1,0.4-1.7,0.6l0,0c-0.5,0.2-1,0.3-1.5,0.4&#10;&#9;&#9;c-0.5,0.1-0.9,0.2-1.4,0.2c-0.2,0.1-0.3,0.1-0.5,0.1c-0.4,0-0.8,0.1-1.2,0.1c-0.6,0.1-1.2,0.1-1.8,0c-0.7,0-1.4-0.1-2.2-0.1&#10;&#9;&#9;c-0.1,0-0.2,0-0.3,0c-0.6-0.1-1.3-0.2-1.9-0.3c-0.1,0-0.2,0-0.3,0c-0.6-0.1-1.3-0.3-1.9-0.5c-1.8-0.5-3.6-1.1-5.4-1.9&#10;&#9;&#9;c-0.6-0.3-1.2-0.5-1.8-0.8c-0.7-0.3-1.4-0.7-2.1-1.1c-0.6-0.3-1.1-0.6-1.7-1c-2.4-1.4-4.9-3.2-7.4-5.1c-1-0.8-1.9-1.6-2.9-2.5&#10;&#9;&#9;c-0.2-0.2-0.4-0.3-0.6-0.5c-1-0.8-1.9-1.7-2.9-2.7c-1-0.9-2-1.9-2.9-2.9c-2.1-2.1-4.2-4.4-6.3-6.9c-0.8-1-1.7-2.1-2.5-3.1&#10;&#9;&#9;c-0.9-1.2-1.9-2.4-2.9-3.7c-0.7-0.9-1.3-1.8-2-2.7c-1.3-1.8-2.6-3.6-3.9-5.6c-1.1-1.7-2.2-3.4-3.3-5.2c-1-1.6-1.9-3.2-2.9-4.8&#10;&#9;&#9;c-0.1-0.1-0.2-0.3-0.3-0.5c-1-1.7-2-3.4-2.9-5.1c-0.6-1-1.1-2.1-1.7-3.1c-2.6-4.9-5.1-10-7.4-15.3c-0.8-1.8-1.6-3.7-2.4-5.6&#10;&#9;&#9;c0,0,0-0.1-0.1-0.2c-7.9-19-12.9-37.7-15.1-54.3c-0.2-1.7-0.4-3.3-0.6-4.9c-0.5-4.8-0.7-9.5-0.7-13.9c0,0,0,0,0,0&#10;&#9;&#9;c0-1.5,0-2.9,0.1-4.3c0.1-1.4,0.2-2.8,0.3-4.1c0.2-1.8,0.4-3.5,0.6-5.2c0.2-1,0.3-2,0.5-3c1-5.2,2.6-9.8,4.7-13.6&#10;&#9;&#9;c2.7-4.9,6.3-8.4,10.8-10.3c17.2-7.1,42.3,11.8,63.1,44.9c1.6,2.6,3.2,5.2,4.8,8c4.7,8.3,9.1,17.3,13.1,26.8&#10;&#9;&#9;c7.7,18.5,12.7,36.8,15,53l0,0C503.7,475.9,500.3,497.3,489.8,506.5"/>
	<path id="el_FVDBzQJ8XX" d="M403.2,430.4c13,31.3,30.8,56.5,47.9,70.1c11.3,9,22.4,13,31.4,10.2&#10;&#9;&#9;c7-17.9,0.7-57.8-17-100.5c-2.2-5.2-4.5-10.3-6.8-15.2c-21.5-45.1-48.8-75-64.2-68.6c-0.5,0.2-1,0.5-1.4,0.7&#10;&#9;&#9;C382.1,346.6,385.4,387.7,403.2,430.4"/>
	<path id="el_pKUEtAvUd_" d="M216.3,573.1c0,0-1.6,5.3-0.2,12.4c1.4,7.2,10.1,14.5,25.1,14.7c14.9,0.3,26.8-4.1,30.7-10.1&#10;&#9;&#9;c3.9-6,0.3-16,0.3-16C264.5,569.2,216.3,573.1,216.3,573.1"/>
	<path id="el_RBB8Noswjg" d="M360.9,568.4c0,0,1.2,12.6,2.6,19.8c1.4,7.2,7.2,14.6,22.2,14.9c14.9,0.3,26.8-4.1,30.7-10.1&#10;&#9;&#9;c3.9-6,0.3-16,0.3-16C409.1,571.9,360.9,568.4,360.9,568.4"/>
	<path id="el_if-Y7A3QSP" d="M203.5,496.9c-4.9,7-2.8,15.9-34.1,15.6c-31.3-0.3-16.8-110.7-16.8-110.7&#10;&#9;&#9;s49.2,44.1,51.7,47.2C206.9,452.1,208.4,489.9,203.5,496.9"/>
	<path id="el_YNwzFltdQq" d="M152.4,384.6l-0.8,6.8c0,0,3.4,16.1,6.2,13.8c2.8-2.4,34.2,22.7,34.2,24.7&#10;&#9;&#9;c0,2,49.5,42.4,49.5,42.4l46.7,45.8l58.7-13.3c0,0,13-3.8,14.6-16.7c1.6-12.9,4.1-38,7.6-42.7c3.5-4.7,26-18.9,29.5-18&#10;&#9;&#9;c3.5,0.9,32-0.3,34.7,0.7c2.7,0.9,29.9-0.6,29.9-0.6l-12.6-22.2l10.5-7.2c0,0-5.3-13.1-12.7-18.3c-7.4-5.2-62.2-18.4-83.3-18.2&#10;&#9;&#9;c-21.1,0.3-157-3-157-3L152.4,384.6z"/>
	<path id="el_uh5H29Sp0A" d="M209.2,551.6c0,0,2.4,40.5,24.8,42.6c33.6,3.2,40.8-10.9,40.4-24.2&#10;&#9;&#9;C273.7,542,209.2,551.6,209.2,551.6"/>
	<path id="el_3CdTClg63z" d="M185.3,482.8c0,0-1.8,0.5-4.6,1.3c-4.5,1.3-11.4,3.2-17,4.6l0,0c-5.1,1.2-9.1,2.1-9.3,1.6&#10;&#9;&#9;c-0.3-0.6-2.6-0.3-5.5-0.1c-3.6,0.4-8,0.8-10.6-0.2c-4.6-1.8,1.6-6.9,1.6-6.9c2.6-3.3,12.9-5.3,22.7-6.5l0.1,0&#10;&#9;&#9;c9.6-1.2,18.7-1.6,18.7-1.6L185.3,482.8z"/>
	<path id="el_7PdCADU6ap" d="M360.3,559.5c0,0-0.5,36.7,21.9,38.9c33.6,3.2,36.8-15,36.4-28.4&#10;&#9;&#9;C417.8,542,360.3,559.5,360.3,559.5"/>
	<path id="el_7fJzGiLMYH" d="M456.3,386.6c0,0-49.6-9-84.4,4.2c-12.2,4.6-26,15.9-45.1,20.3c-0.3,0-0.5,0.1-0.8,0.2&#10;&#9;&#9;c-0.6,0.2-1.1,0.3-1.7,0.4c-3.4,0.7-6.9,1.3-10.6,1.6c-1.3,0.1-2.7,0.2-4.1,0.3c-1.4,0.1-2.9,0.1-4.4,0.2c-1,0-2,0-3,0&#10;&#9;&#9;C284,413.3,262.8,408,238,394c-21.3-12-46.3-19.5-85.6-11.8c-5.6,1.1-4.3-65.4,31.8-118.3c0,0,0,0,0,0c7-10.3,15.5-20.1,25.6-28.7&#10;&#9;&#9;c51.2-43.8,120.6-46.6,169.7-17c5.5,3.3,10.6,7,15.5,11c1.2,1,2.3,2,3.4,3.1C442.1,272.5,452.7,351.9,456.3,386.6"/>
	<g id="el_EQNbzD1xja_an_CPtChv1ZT" data-animator-group="true" data-animator-type="2"><path id="el_EQNbzD1xja" d="M283.9,327.6c0,0,0.1,1,0.5,2.6c0.2,0.8,0.6,1.8,1.1,2.8c0.5,1,1.2,2.1,2.1,3.2&#10;&#9;&#9;c0.9,1.1,2,2,3.2,2.9c1.3,0.8,2.8,1.5,4.4,2.1c0.8,0.2,1.6,0.5,2.5,0.8c0.9,0.2,1.8,0.3,2.6,0.5c0.9,0.2,1.8,0.2,2.8,0.3l1.3,0.1&#10;&#9;&#9;l1.5,0c2,0.2,3.8,0.1,5.6,0c0.9-0.1,1.8-0.2,2.7-0.3c0.8-0.2,1.7-0.4,2.5-0.6c1.6-0.5,3.1-1.1,4.3-2c1.3-0.8,2.2-1.9,3.1-2.9&#10;&#9;&#9;c0.7-1.1,1.4-2.2,1.7-3.3c0.4-1.1,0.6-2.1,0.8-2.9c0.3-1.7,0.4-2.7,0.4-2.7s0.3,1,0.4,2.7c0.1,1.7,0.1,4.4-1.3,7.4&#10;&#9;&#9;c-0.7,1.4-1.7,3-3.2,4.1c-1.4,1.3-3.2,2.2-5,3c-0.9,0.3-1.9,0.6-2.9,0.9c-1,0.2-2,0.4-3,0.5c-2.1,0.2-4.2,0.3-6.1,0.2l-1.5-0.1&#10;&#9;&#9;l-1.6-0.2c-1-0.2-2-0.2-3-0.5c-1-0.3-2-0.5-3-0.8c-1-0.4-1.9-0.7-2.8-1.1c-1.8-0.8-3.4-1.9-4.9-3.1c-1.4-1.2-2.5-2.6-3.3-4&#10;&#9;&#9;c-1.6-2.8-2-5.4-2-7.2C283.6,328.5,283.9,327.6,283.9,327.6"/></g>
	<line id="el_j-ycVx8GKY" x1="295" y1="308.5" x2="296.8" y2="310.4"/>
	<path id="el_tejb0QwT0mH" d="M296.8,312.4c-0.5,0-1-0.2-1.4-0.6l-1.8-1.9c-0.8-0.8-0.8-2.1,0.1-2.9&#10;&#9;&#9;c0.8-0.8,2.1-0.8,2.9,0.1l1.8,1.9c0.8,0.8,0.8,2.1-0.1,2.9C297.8,312.3,297.3,312.4,296.8,312.4z"/>
	<line id="el_pRHQPe4piR-" x1="319.1" y1="308.9" x2="317.2" y2="310.8"/>
	<path id="el_ZCqWAMl2bUn" d="M317.2,312.8c-0.5,0-1-0.2-1.4-0.6c-0.8-0.8-0.8-2.1,0.1-2.9l1.9-1.8&#10;&#9;&#9;c0.8-0.8,2.1-0.8,2.9,0.1c0.8,0.8,0.8,2.1-0.1,2.9l-1.9,1.8C318.2,312.6,317.7,312.8,317.2,312.8z"/>
	<path id="el_trw5DtTsRt8" d="M237,326.7c-0.1,3.8-8.6,6.7-19.1,6.5c-10.5-0.2-18.9-3.4-18.9-7.2c0.1-3.8,8.6-6.7,19.1-6.5&#10;&#9;&#9;C228.6,319.7,237.1,322.9,237,326.7"/>
	<path id="el_vn1DE1Oluar" d="M419.5,328.2c-0.1,3.8-8.6,6.7-19.1,6.5c-10.5-0.2-18.9-3.4-18.9-7.2&#10;&#9;&#9;c0.1-3.8,8.6-6.7,19.1-6.5C411.2,321.2,419.6,324.4,419.5,328.2"/>
	<path id="el_CPeG4_8hADs" d="M458.1,396.4c-5.5-0.7-34.4-1.6-77.1,6.8c-42,8.2-62.9,29.6-67.8,48&#10;&#9;&#9;c-4.9,18.3,2.4,68.4,2.4,68.4s113.2-3.9,131.9-34.6C466.2,454.3,458.1,396.4,458.1,396.4"/>
	<path id="el_ow2Wb--7BnE" d="M303.3,514.4c0,0-101-7-121-36.1c-26.7-38.9-30.7-86.9-30.7-86.9c4.1-0.4,19.9-0.3,45.5,3.4&#10;&#9;&#9;c7.7,1.1,16.3,2.5,25.7,4.3c40.7,7.9,67.6,34.9,72.8,53.6c3.2,11.4,5,25.6,6.1,37.5C303.1,503.8,303.3,514.4,303.3,514.4"/>
	<g id="el_UV6624NbO33">
		<g id="el_uOeIB5lJnts">
			<defs>
				
					<rect id="XMLID_3516_" x="306.9" y="393.2" transform="matrix(-0.9998 -1.881981e-002 1.881981e-002 -0.9998 754.1725 889.7892)" width="148.7" height="96.3"/>
			</defs>
			<clipPath id="XMLID_62_">
				<use xlink:href="#XMLID_3516_" style="overflow:visible;"/>
			</clipPath>
		</g>
	</g>
	<path id="el_eG4PgRx9rm0" d="M198.5,523.9c-6.5,6.1-17.9,7.9-27.8,7.1c-5.8-0.4-11-1.7-14.5-3.5&#10;&#9;&#9;c-8.5-4.3-7.6-7.2-7.3-37.2l0-0.5l14.4-2.7l17.2-3.2c0,0,0.1,0.1,0.2,0.2C183.1,486.8,208.3,514.7,198.5,523.9"/>
	<path id="el_VdzKWCLcmvi" d="M458.5,465.6c0,0-4.4,30.1-8,38.3c-0.1,0.3-0.3,0.6-0.4,0.9c-3.8,6.7-25.9,62.3-39.2,68.1&#10;&#9;&#9;c-15,6.6-48.3,7.8-50-12.6c-1.7-20.4-9.6-31.5-56.2-27.6c-46.6,3.8-18.2,16.3-32.5,29.8c-2.3,2.2-15.8,3.2-25.7,2.9&#10;&#9;&#9;c-16.5-0.5-35.8-0.9-40.1-14.7c-1.6-5.1-13.2-29.4-23.4-50.6c-0.3-0.5-0.5-1-0.7-1.5c-2.2-4.5-4.2-8.7-6.1-12.6&#10;&#9;&#9;c-5.4-11.2-9.4-19.2-9.4-19.2C275.6,507,458.5,465.6,458.5,465.6"/>
	<path id="el_gZ3p26YeSXf" d="M477.8,453.5c0.9,35.3-31.9,64.7-58.4,66.7c-7.7,0.6-14.9-1.1-20.5-5.7&#10;&#9;&#9;c-14.7-11.9-5.2-35.3,26.2-44.7c1.6-0.5,3.1-1,4.5-1.6c2.1-0.9,4-2,5.6-3.1c18-12.4,8.8-35.5,13.8-47.1c1.4-3.2,2.5-6.4,2.9-7.3&#10;&#9;&#9;l0,0c0.2-0.4,0.4-0.7,0.6-1.1C466.8,384,476.7,411.3,477.8,453.5"/>
	<path id="el_JseQ_c0JzYx" d="M169.9,474.6l3.2,6.7c0,0,52.5,14.8,88.5,16.9c35.9,2.1,114.2-3.3,144.2-9l2.3-10&#10;&#9;&#9;c0,0-57,8.3-102.1,9.1c0,0-35.2,4.5-79.9-3.5c-44.7-8-55.3-12.3-55.3-12.3L169.9,474.6z"/>
	<path id="el_Yh1QyEYpmyr" d="M419,471.2c0,0-5.6-1.1-2.2-3.9c3.4-2.7,12.1-5.1,23.1,4.3c11,9.4,23.9,32.1,20.2,36.1&#10;&#9;&#9;c-3.6,4-10.2-0.2-10.2-0.2L419,471.2z"/>
	<path id="el_4sCXU1s06Av" d="M453.3,505.4c0,0-3.1,7.9-12.7,12.5c-9.6,4.6-25.3,10.2-35.7,1.2c-5.3-4.6-15.7-10.1-12.6-24&#10;&#9;&#9;c0.4-1.6,0.8-3,1.3-4.4c4-10.8,12.2-15.7,12.2-15.7c7.9-5.4,14.6-5.6,18.7-5c5.9,0.8,8.4,2.8,16.5,11.9c4,4.4,6.7,8.3,8.5,11.6&#10;&#9;&#9;C453.6,501.1,453.3,505.4,453.3,505.4"/>
	<g id="el_2W2C9izfHtF">
		<g id="el_KFbt9urT-XL">
			<defs>
				
					<rect id="XMLID_3445_" x="373.5" y="576.7" transform="matrix(-0.9998 -1.881981e-002 1.881981e-002 -0.9998 770.239 1172.3744)" width="34.2" height="11.8"/>
			</defs>
			<clipPath id="XMLID_63_">
				<use xlink:href="#XMLID_3445_" style="overflow:visible;"/>
			</clipPath>
			<path id="el_uGugsE3OGyX" d="M407.7,582.9c-0.1,3.2-7.8,5.7-17.2,5.6c-9.4-0.2-17.1-3-17-6.2c0.1-3.3,7.8-5.8,17.2-5.6&#10;&#9;&#9;&#9;&#9;C400.2,576.8,407.8,579.6,407.7,582.9"/>
		</g>
	</g>
	<g id="el_9-QLYKy7SzX">
		<g id="el_3DHUjZ2UTsg">
			<defs>
				
					<rect id="XMLID_3439_" x="221.7" y="570.9" transform="matrix(-0.9998 -1.881981e-002 1.881981e-002 -0.9998 466.7636 1157.988)" width="34.2" height="11.8"/>
			</defs>
			<clipPath id="XMLID_64_">
				<use xlink:href="#XMLID_3439_" style="overflow:visible;"/>
			</clipPath>
			<path id="el_7IquDycP3nT" d="M255.9,577.1c-0.1,3.2-7.8,5.7-17.2,5.6c-9.5-0.2-17.1-3-17-6.2c0.1-3.3,7.8-5.8,17.2-5.6&#10;&#9;&#9;&#9;&#9;C248.4,571.1,256,573.9,255.9,577.1"/>
		</g>
	</g>
	<path id="el_PrKbQpyw4iX" d="M322.9,485.8c0,0-27.3-0.4-32.4-0.5c-0.2,0-0.3,0-0.5,0c-1.3-0.2-7.3-0.7-8.7,2.5&#10;&#9;&#9;c-1.5,3.6-3.6,13.2,6,14.1c9.6,0.8,35.3-0.4,36.2-2.7C324.5,496.8,323.6,487.6,322.9,485.8 M318.4,497.2&#10;&#9;&#9;c-0.7,1.5-20.2,2.2-27.5,1.6c-7.3-0.6-5.8-6.6-4.6-8.9c1-2,5.6-1.7,6.6-1.5c0.1,0,0.3,0,0.4,0c2.9,0.1,14.4,0.2,20.6,0.3&#10;&#9;&#9;c2.5,0,4.6,2,4.8,4.5C318.7,494.8,318.7,496.5,318.4,497.2"/>
	<g id="el_WFbXQaLMlV-">
		<g id="el_EtoZO0XB0pO">
			<defs>
				<rect id="XMLID_3380_" x="305.2" y="492.4" width="1.9" height="1.9"/>
			</defs>
			<use xlink:href="#XMLID_3380_" id="el_toVeKyKC14a"/>
			<clipPath id="XMLID_65_">
				<use xlink:href="#XMLID_3380_" style="overflow:visible;"/>
			</clipPath>
			<path id="el_pr-t9eOJuMU" d="M307.1,493.4c0,0.5-0.4,0.9-0.9,0.9c-0.5,0-1-0.4-1-0.9c0-0.5,0.4-1,0.9-1&#10;&#9;&#9;&#9;&#9;C306.7,492.4,307.1,492.9,307.1,493.4"/>
		</g>
	</g>
	<g id="el_2BKxZyThH0e">
		<g id="el_F1PtGhTzt88">
			<defs>
				<rect id="XMLID_3373_" x="294.5" y="492.5" width="1.9" height="1.9"/>
			</defs>
			<use xlink:href="#XMLID_3373_" id="el_RJMv8EdLpif"/>
			<clipPath id="XMLID_66_">
				<use xlink:href="#XMLID_3373_" style="overflow:visible;"/>
			</clipPath>
			<path id="el_i5k6a0gV5EI" d="M296.4,493.4c0,0.5-0.4,0.9-0.9,0.9c-0.5,0-1-0.4-1-0.9c0-0.5,0.4-1,0.9-1&#10;&#9;&#9;&#9;&#9;C295.9,492.5,296.4,492.9,296.4,493.4"/>
		</g>
	</g>
	<g id="el_QIkd9MZtF8R_an_9sz7u6eLl" data-animator-group="true" data-animator-type="2"><g id="el_QIkd9MZtF8R">
		<path id="el_-KGpaHMicV4" d="M410.9,297.6c-0.2,9.3-7.8,16.7-17.1,16.5c-9.3-0.2-16.7-7.8-16.5-17.1&#10;&#9;&#9;&#9;c0.2-9.3,7.8-16.7,17.1-16.5C403.7,280.7,411.1,288.3,410.9,297.6"/>
		<path id="el_gbGMaug1KZc" d="M403.5,291.8c-0.1,3.6-4.2,0.4-9.3,0.3c-5.1-0.1-9.4,3-9.3-0.6c0.1-3.6,4.3-6.5,9.4-6.4&#10;&#9;&#9;&#9;C399.5,285.2,403.6,288.2,403.5,291.8"/>
	</g></g>
	<g id="el_dVlPy_nOHFg_an_1bZXnkGlT" data-animator-group="true" data-animator-type="2"><g id="el_dVlPy_nOHFg">
		<path id="el_u70oSWrFSQd" d="M241.4,294.4c-0.2,9.3-7.8,16.7-17.1,16.5s-16.7-7.8-16.5-17.1c0.2-9.3,7.8-16.7,17.1-16.5&#10;&#9;&#9;&#9;C234.2,277.5,241.6,285.2,241.4,294.4"/>
		<path id="el_v2Rvaviuz3j" d="M234,288.6c-0.1,3.6-4.2,0.4-9.3,0.3c-5.1-0.1-9.4,3-9.3-0.6c0.1-3.6,4.3-6.5,9.4-6.4&#10;&#9;&#9;&#9;C230,282,234.1,285,234,288.6"/>
	</g></g>
</g>
<g id="el_CsGuqrgGy21_an_ZbIRD94bT" data-animator-group="true" data-animator-type="1"><g id="el_CsGuqrgGy21">
	<path id="el_wytyGqcu1Yn" d="M358,225.7c0,0,15.7-7.9,24.7-12.2c9-4.3,32.7,6.9,60.6,8.1c32.5,1.4,43.9,0,41.3,11.1&#10;&#9;&#9;c-2.5,11.1-12,8.4-22.6,3.6c-10.6-4.8-53.2-12.4-63.6-15.5c-5.8-1.7-9.1-3-14.3-1.8c-9.9,2.4-20.9,11.5-20.9,11.5s-3.6-0.5-4.6-1.1&#10;&#9;&#9;C357.5,228.8,358,225.7,358,225.7"/>
</g></g>
<g id="el_Wiziu4gEU-3_an_kk-Ap-qRe" data-animator-group="true" data-animator-type="2"><g id="el_Wiziu4gEU-3">
	<g id="el_P_K8OczctVA">
		<path id="el_m-sXavb9IGs" d="M411,291.6c-0.2,12.6-8,22.7-17.2,22.5c-9.3-0.2-16.6-10.5-16.4-23.2s8-22.7,17.2-22.5&#10;&#9;&#9;&#9;C403.9,268.6,411.3,279,411,291.6"/>
		<path id="el_8pQMlDwM748" d="M403.7,283.7c-0.1,4.9-4.2,0.5-9.3,0.4c-5.1-0.1-9.4,4.1-9.3-0.8c0.1-4.9,4.3-8.8,9.5-8.7&#10;&#9;&#9;&#9;C399.7,274.8,403.8,278.8,403.7,283.7"/>
	</g>
	<g id="el_PmiSDjadAnV">
		<path id="el_ObdPGambHvE" d="M241.5,288.4c-0.2,12.6-8,22.7-17.2,22.5s-16.6-10.5-16.4-23.2s8-22.7,17.2-22.5&#10;&#9;&#9;&#9;S241.8,275.8,241.5,288.4"/>
		<path id="el_2DWyHlPp5JJ" d="M234.2,280.6c-0.1,4.9-4.2,0.5-9.3,0.4c-5.1-0.1-9.4,4.1-9.3-0.8c0.1-4.9,4.3-8.8,9.5-8.7&#10;&#9;&#9;&#9;C230.2,271.6,234.2,275.6,234.2,280.6"/>
	</g>
</g></g>
<g id="el_KrP5AmD2VME_an_GmGL9-tx2" data-animator-group="true" data-animator-type="2"><g id="el_KrP5AmD2VME">
	<ellipse id="el_r49X-EMIdbX" cx="306.4" cy="346.5" rx="7.6" ry="9.1"/>
	<path id="el_wDOlikcJ38D" d="M297.4,339.3c0,0-2,7.1-1.5,12.8C294.6,348.6,295.3,343.5,297.4,339.3z"/>
	<path id="el_4WDbxla3FDD" d="M316.9,339.3c0,0,2,7.1,1.5,12.8C319.8,348.6,319,343.5,316.9,339.3z"/>
</g></g>
<g id="el_tUFnfYL0eEv_an_l1GfnAgtn" data-animator-group="true" data-animator-type="1"><g id="el_tUFnfYL0eEv">
	<path id="el_tShr66iT0oW" d="M238.8,223.4c0,0-15.4-8.5-24.2-13.1c-8.8-4.6-32.9,5.7-60.8,5.8&#10;&#9;&#9;c-32.6,0.2-43.9-1.7-41.7,9.5c2.1,11.2,11.7,8.8,22.5,4.5c10.8-4.4,53.6-10.4,64.2-13c5.9-1.5,9.2-2.7,14.3-1.2&#10;&#9;&#9;c9.8,2.8,20.5,12.3,20.5,12.3s3.6-0.4,4.6-0.9C239.3,226.6,238.8,223.4,238.8,223.4"/>
</g></g>
</svg>